<?xml version="1.0" encoding="utf-8"?><!-- Uploaded to: SVG Repo, www.svgrepo.com, Generator: SVG Repo Mixer Tools -->
<svg width="800px" height="800px" viewBox="0 0 24 24" id="_003_ECOMMERCE_03" data-name="003_ECOMMERCE_03" xmlns="http://www.w3.org/2000/svg"><title>003_094</title><path d="M18,22H6a3.00328,3.00328,0,0,1-3-3V9a.999.999,0,0,1,.3999-.7998l8-6a.99757.99757,0,0,1,1.2002,0L19,7V6a1,1,0,0,1,2,0V9a.99982.99982,0,0,1-1.6001.7998L12,4.25,5,9.5V19a1.001,1.001,0,0,0,1,1H18a1.001,1.001,0,0,0,1-1V14a1,1,0,0,1,2,0v5A3.00328,3.00328,0,0,1,18,22Z" style="fill:#333"/><path d="M9.17139,17.85723a1,1,0,0,1-.707-1.707L14.12158,10.493A.99989.99989,0,0,1,15.53564,11.907L9.87842,17.56426A.99676.99676,0,0,1,9.17139,17.85723Z" style="fill:#333"/><circle cx="9" cy="11" r="1" style="fill:#333"/><circle cx="15" cy="17" r="1" style="fill:#333"/></svg>