<svg xmlns="http://www.w3.org/2000/svg" width="33.592" height="43.517" viewBox="0 0 33.592 43.517">
  <g id="_x31_2_sending_mail" transform="translate(-8.07 -1)">
    <g id="Group_10330" data-name="Group 10330" transform="translate(8.07 1)">
      <path id="Path_7920" data-name="Path 7920" d="M40.663,13.6l0-.006a.663.663,0,0,0-.054-.042,3.133,3.133,0,0,0-2.1-.817H35.133V3.473A2.476,2.476,0,0,0,32.66,1H10.543A2.476,2.476,0,0,0,8.07,3.473V42.044a2.476,2.476,0,0,0,2.473,2.473H32.66a2.476,2.476,0,0,0,2.473-2.473V30.951H38.5a3.141,3.141,0,0,0,2.191-.893s.01-.005.014-.01l0,0a3.149,3.149,0,0,0,.95-2.253v-11.9A3.141,3.141,0,0,0,40.663,13.6Zm-2.158.539a1.739,1.739,0,0,1,.4.052L29.154,22.7l-9.761-8.51a1.74,1.74,0,0,1,.407-.052Zm-12.6,7.59L18.42,28.861a1.74,1.74,0,0,1-.373-1.07v-11.9a1.733,1.733,0,0,1,.215-.825ZM15.989,2.4H27.212v.924a.925.925,0,0,1-.924.924H16.912a.925.925,0,0,1-.924-.924Zm-5.445,0h4.042v.924a2.33,2.33,0,0,0,2.327,2.327h9.376a2.33,2.33,0,0,0,2.327-2.327V2.4H32.66a1.071,1.071,0,0,1,1.069,1.069v9.261H19.8a3.133,3.133,0,0,0-2.11.825c-.015.014-.034.021-.047.036l0,.005a3.141,3.141,0,0,0-1,2.29V16H13.957a.7.7,0,0,0,0,1.4h2.686v2.981H13.957a.7.7,0,0,0,0,1.4h2.686v3.631H13.957a.7.7,0,0,0,0,1.4h2.686v.965a3.162,3.162,0,0,0,3.157,3.16H33.729v8.477H9.474V3.473A1.071,1.071,0,0,1,10.543,2.4ZM32.66,43.113H10.543a1.071,1.071,0,0,1-1.069-1.069V40.831H33.729v1.213A1.071,1.071,0,0,1,32.66,43.113ZM38.5,29.547H19.8c-.02,0-.039-.005-.059-.006l7.224-6.886,1.728,1.507a.7.7,0,0,0,.923,0L31.637,22.4l7.423,7.052A1.73,1.73,0,0,1,38.5,29.547Zm1.754-1.756a1.743,1.743,0,0,1-.154.713L32.7,21.47l7.342-6.406a1.731,1.731,0,0,1,.217.828Z" transform="translate(-8.07 -1)" fill="#7b809a"/>
    </g>
  </g>
</svg>
