<svg id="balance-4-svgrepo-com" xmlns="http://www.w3.org/2000/svg" width="52.47" height="45.795" viewBox="0 0 52.47 45.795">
  <path id="Path_606" data-name="Path 606" d="M52.47,64.073h-.046l-8.087-18.6c.769.278,1.421.518,1.925.707l.947-2.512c-2.691-1.012-9.255-3.344-16.438-5.458A4.028,4.028,0,0,0,23.9,35.369a3.9,3.9,0,0,0-.617.8c-7.113-1.8-13.76-3.109-16.543-3.6l-.466,2.643c.589.1,1.365.248,2.289.426L.047,55.215H0l.019.061L0,55.315l.035.015a10.273,10.273,0,0,0,19.594,0l.036-.015-.017-.04.019-.061h-.047L11.352,36.2c3.174.653,7.223,1.547,11.41,2.608a4.025,4.025,0,0,0,2.372,3.1V70.227H21.9s-.775,4.844-4.262,5.617v2.519H35.85V75.845c-3.486-.773-4.262-5.617-4.262-5.617H28.356V41.9a4.083,4.083,0,0,0,1.52-1.157c4.277,1.257,8.357,2.6,11.511,3.689L32.847,64.073H32.8c.006.021.013.04.02.061l-.018.04.035.015a10.274,10.274,0,0,0,19.595,0l.035-.016-.017-.04C52.457,64.113,52.465,64.094,52.47,64.073Zm-34.6-8.858H1.8l8.032-18.47Zm10.4-15.481a2.166,2.166,0,0,1-1.517.63,2.134,2.134,0,0,1-1.519-.63,2.332,2.332,0,0,1-.3-.368,2.113,2.113,0,0,1-.333-1.149,2.143,2.143,0,0,1,.628-1.52.205.205,0,0,1,.025-.021,2.15,2.15,0,0,1,3.567.971,2.208,2.208,0,0,1,.075.57A2.122,2.122,0,0,1,28.262,39.734ZM34.6,64.073,42.636,45.6l8.032,18.47Z" transform="translate(0 -32.569)" fill="#7b809a"/>
</svg>
