<svg xmlns="http://www.w3.org/2000/svg" width="53.568" height="50.739" viewBox="0 0 53.568 50.739">
  <g id="businessmen-meeting-svgrepo-com" transform="translate(1.318 -9.829)">
    <g id="Group_10325" data-name="Group 10325" transform="translate(0 10.829)">
      <g id="Group_10324" data-name="Group 10324" transform="translate(0 0)">
        <circle id="Ellipse_6" data-name="Ellipse 6" cx="6.623" cy="6.623" r="6.623" transform="translate(18.848)" fill="none" stroke="#7b809a" stroke-width="2"/>
        <path id="Path_7913" data-name="Path 7913" d="M267.13,146.951l-5.733-1.27-1.178-1.178-1.736,1.884,1.034,8.64h9.873Z" transform="translate(-232.291 -130.958)" fill="none" stroke="#7b809a" stroke-width="2"/>
        <path id="Path_7914" data-name="Path 7914" d="M144.607,145.681l-5.729,1.27-2.249,8.072H146.5l1.034-8.638-1.742-1.882Z" transform="translate(-122.784 -130.958)" fill="none" stroke="#7b809a" stroke-width="2"/>
        <circle id="Ellipse_7" data-name="Ellipse 7" cx="6.254" cy="6.254" r="6.254" transform="translate(4.717 26.024)" fill="none" stroke="#7b809a" stroke-width="2"/>
        <path id="Path_7915" data-name="Path 7915" d="M117.76,394.911l-1.1-1.115-1.642,1.775.971,8.155H125.3l-2.127-7.624Z" transform="translate(-103.36 -354.99)" fill="none" stroke="#7b809a" stroke-width="2"/>
        <path id="Path_7916" data-name="Path 7916" d="M7.534,394.949l-5.4,1.191L0,403.767H9.311l.973-8.157-1.637-1.771Z" transform="translate(0 -355.028)" fill="none" stroke="#7b809a" stroke-width="2"/>
        <path id="Path_7917" data-name="Path 7917" d="M345.277,273.964a6.252,6.252,0,1,0-6.26,6.247A6.251,6.251,0,0,0,345.277,273.964Z" transform="translate(-299.052 -241.685)" fill="none" stroke="#7b809a" stroke-width="2"/>
        <path id="Path_7918" data-name="Path 7918" d="M409.328,396.1l-5.408-1.191-1.108-1.115-1.639,1.771.975,8.157h9.307Z" transform="translate(-360.522 -354.99)" fill="none" stroke="#7b809a" stroke-width="2"/>
        <path id="Path_7919" data-name="Path 7919" d="M293.695,394.949l-5.408,1.191-2.129,7.626h9.314l.975-8.157-1.648-1.771Z" transform="translate(-257.161 -355.028)" fill="none" stroke="#7b809a" stroke-width="2"/>
      </g>
    </g>
  </g>
</svg>
