<svg xmlns="http://www.w3.org/2000/svg" width="40.006" height="41.743" viewBox="0 0 40.006 41.743">
  <path id="data-center-asset-overview-svgrepo-com" d="M69.315,20.963a2.807,2.807,0,0,1,2.816,2.8v8.381a2.81,2.81,0,0,1-2.816,2.8H61.792a2.806,2.806,0,0,1-2.813-2.8V23.766a2.808,2.808,0,0,1,2.813-2.8Zm0,22.4a2.807,2.807,0,0,1,2.816,2.8v8.381a2.81,2.81,0,0,1-2.816,2.8H61.792a2.806,2.806,0,0,1-2.813-2.8V46.166a2.806,2.806,0,0,1,2.813-2.8Zm21.543-22.4a2.806,2.806,0,0,1,2.813,2.8v8.381a2.81,2.81,0,0,1-2.813,2.8H83.334a2.806,2.806,0,0,1-2.816-2.8V23.766a2.811,2.811,0,0,1,2.816-2.8h7.523ZM61.445,37.628h8.217a5.108,5.108,0,0,0,5.125-5.1V23.381a5.105,5.105,0,0,0-5.125-5.1H61.448a5.112,5.112,0,0,0-5.128,5.1v9.148a5.105,5.105,0,0,0,5.125,5.1Zm0,22.4h8.217a5.109,5.109,0,0,0,5.125-5.1V45.781a5.105,5.105,0,0,0-5.125-5.1H61.448a5.108,5.108,0,0,0-5.125,5.1v9.151a5.105,5.105,0,0,0,5.125,5.1Zm21.546-22.4H91.2a5.108,5.108,0,0,0,5.125-5.1V23.381a5.105,5.105,0,0,0-5.125-5.1H82.987a5.106,5.106,0,0,0-5.122,5.1v9.148a5.105,5.105,0,0,0,5.125,5.1Zm7.857,19.706H82.984c-1.7,0-2.428-.706-2.428-2.405V45.781c0-1.692.735-2.431,2.431-2.431H91.2c1.7,0,2.466.735,2.466,2.428v9.158a1.367,1.367,0,0,0,1.384,1.207,1.258,1.258,0,0,0,1.275-1.207V45.778A5.105,5.105,0,0,0,91.2,40.685H82.987a5.108,5.108,0,0,0-5.125,5.1v9.151a5.106,5.106,0,0,0,5.122,5.1h8.191a1.365,1.365,0,0,0,1.349-1.352A1.349,1.349,0,0,0,91.2,57.334h-.35Z" transform="translate(-56.32 -18.285)" fill="#7b809a"/>
</svg>
