<svg xmlns="http://www.w3.org/2000/svg" width="41.656" height="43.743" viewBox="0 0 41.656 43.743">
  <g id="document-add-svgrepo-com" transform="translate(-2 -1)">
    <path id="Path_7899" data-name="Path 7899" d="M24.9,9.169l.967-.967a4.1,4.1,0,0,1,5.8,5.8l-.967.967m-5.8-5.8a6.539,6.539,0,0,0,1.935,3.869A6.539,6.539,0,0,0,30.7,14.973m-5.8-5.8-8.893,8.892A14.269,14.269,0,0,0,14.844,19.3a6.854,6.854,0,0,0-.781,1.264,14.247,14.247,0,0,0-.585,1.592l-.862,2.587-.279.837M30.7,14.973,21.81,23.865a14.269,14.269,0,0,1-1.236,1.163,6.854,6.854,0,0,1-1.264.781,14.248,14.248,0,0,1-1.592.585l-2.587.862-.837.279m0,0-.837.279a1.107,1.107,0,0,1-1.4-1.4l.279-.837m1.958,1.958-1.958-1.958" transform="translate(9.784 5.436)" fill="none" stroke="#7b809a" stroke-width="2"/>
    <path id="Path_7900" data-name="Path 7900" d="M8,13h5.218" transform="translate(5.436 11.959)" fill="none" stroke="#7b809a" stroke-linecap="round" stroke-width="2"/>
    <path id="Path_7901" data-name="Path 7901" d="M8,9H21.566" transform="translate(5.436 7.61)" fill="none" stroke="#7b809a" stroke-linecap="round" stroke-width="2"/>
    <path id="Path_7902" data-name="Path 7902" d="M8,17h3.131" transform="translate(5.436 16.307)" fill="none" stroke="#7b809a" stroke-linecap="round" stroke-width="2"/>
    <path id="Path_7903" data-name="Path 7903" d="M38.123,4.445C35.678,2,31.743,2,23.872,2H19.7C11.826,2,7.891,2,5.445,4.445S3,10.826,3,18.7v8.349C3,34.917,3,38.853,5.445,41.3s6.381,2.445,14.252,2.445h4.174c7.871,0,11.807,0,14.252-2.445,1.968-1.968,2.352-4.9,2.427-10.078" transform="translate(0 0)" fill="none" stroke="#7b809a" stroke-linecap="round" stroke-width="2"/>
  </g>
</svg>
