<svg xmlns="http://www.w3.org/2000/svg" width="48.991" height="48.991" viewBox="0 0 48.991 48.991">
  <g id="Group_10165" data-name="Group 10165" transform="translate(-544.9 -737.505)">
    <g id="generate-svgrepo-com" transform="translate(546 738.605)">
      <path id="Path_634" data-name="Path 634" d="M17.66,6.852A23.405,23.405,0,1,0,27.9,4.5" transform="translate(-4.5 -4.5)" fill="none" stroke="#7b809a" stroke-width="2.2"/>
    </g>
    <path id="dollar-symbol-svgrepo-com" d="M13.548,3.578a1.078,1.078,0,1,0-2.157,0v.6A7.465,7.465,0,0,0,8.045,5.387,4.342,4.342,0,0,0,7.7,12.52a6.924,6.924,0,0,0,3.69,1.258v5.351a5.2,5.2,0,0,1-2.121-.8,2.235,2.235,0,0,1-1.114-1.808,1.078,1.078,0,0,0-2.157,0A4.375,4.375,0,0,0,8.045,20.1a7.465,7.465,0,0,0,3.347,1.206v.6a1.078,1.078,0,1,0,2.157,0v-.6a7.47,7.47,0,0,0,3.34-1.17,4.407,4.407,0,0,0,.343-7.211,6.952,6.952,0,0,0-3.683-1.221V6.358a5.2,5.2,0,0,1,2.121.8A2.235,2.235,0,0,1,16.783,8.97a1.078,1.078,0,1,0,2.157,0,4.375,4.375,0,0,0-2.045-3.583,7.464,7.464,0,0,0-3.347-1.206Zm-2.157,2.78a5.2,5.2,0,0,0-2.121.8A2.235,2.235,0,0,0,8.157,8.97a2.183,2.183,0,0,0,.86,1.841,4.667,4.667,0,0,0,2.375.8Zm2.157,7.514v5.261a5.193,5.193,0,0,0,2.128-.779,2.212,2.212,0,0,0,1.107-1.837,2.176,2.176,0,0,0-.853-1.869A4.7,4.7,0,0,0,13.548,13.873Z" transform="translate(556.697 755.126)" fill="#7b809a" fill-rule="evenodd"/>
    <g id="Icon_feather-arrow-down" data-name="Icon feather-arrow-down" transform="translate(564.155 738.605)">
      <path id="Path_635" data-name="Path 635" d="M18,7.5v15" transform="translate(-12.259 -7.5)" fill="none" stroke="#7b809a" stroke-linecap="round" stroke-linejoin="round" stroke-width="2"/>
      <path id="Path_636" data-name="Path 636" d="M18.982,18l-5.741,5.741L7.5,18" transform="translate(-7.5 -8.737)" fill="none" stroke="#7b809a" stroke-linecap="round" stroke-linejoin="round" stroke-width="2"/>
    </g>
  </g>
</svg>
