<svg xmlns="http://www.w3.org/2000/svg" width="46.531" height="43.534" viewBox="0 0 46.531 43.534">
  <g id="home-1-svgrepo-com" transform="translate(-0.594 -2)">
    <path id="Path_612" data-name="Path 612" d="M45.72,22H2" transform="translate(0 22.534)" fill="none" stroke="#7b809a" stroke-linecap="round" stroke-width="2"/>
    <path id="Path_613" data-name="Path 613" d="M2,19.489l8.882-7.105M45.72,19.489,27.957,5.279a6.558,6.558,0,0,0-8.194,0L18.054,6.646" transform="translate(0 0.999)" fill="none" stroke="#7b809a" stroke-linecap="round" stroke-width="2"/>
    <path id="Path_614" data-name="Path 614" d="M15.5,8.465V4.093A1.093,1.093,0,0,1,16.593,3h5.465a1.093,1.093,0,0,1,1.093,1.093v10.93" transform="translate(16.011 0)" fill="none" stroke="#7b809a" stroke-linecap="round" stroke-width="2"/>
    <path id="Path_615" data-name="Path 615" d="M4,36.825V9.5" transform="translate(2.372 7.709)" fill="none" stroke="#7b809a" stroke-linecap="round" stroke-width="2"/>
    <path id="Path_616" data-name="Path 616" d="M20,9.5v8.744m0,18.581V26.988" transform="translate(21.348 7.709)" fill="none" stroke="#7b809a" stroke-linecap="round" stroke-width="2"/>
    <path id="Path_617" data-name="Path 617" d="M22.116,31.488V20.558c0-3.091,0-4.637-.96-5.6s-2.506-.96-5.6-.96-4.637,0-5.6.96M9,31.488V20.558" transform="translate(8.302 13.046)" fill="none" stroke="#7b809a" stroke-linecap="round" stroke-linejoin="round" stroke-width="2"/>
    <path id="Path_618" data-name="Path 618" d="M18.744,11.872A4.372,4.372,0,1,1,14.372,7.5,4.372,4.372,0,0,1,18.744,11.872Z" transform="translate(9.488 5.337)" fill="none" stroke="#7b809a" stroke-width="2"/>
  </g>
</svg>
