<svg xmlns="http://www.w3.org/2000/svg" width="56.981" height="41.529" viewBox="0 0 56.981 41.529">
  <path id="id-card-svgrepo-com" d="M52.919,5.25H6.562A5.319,5.319,0,0,0,1.25,10.562v30.9a5.319,5.319,0,0,0,5.312,5.312H52.919a5.319,5.319,0,0,0,5.312-5.312v-30.9A5.319,5.319,0,0,0,52.919,5.25ZM6.562,8.147H52.919a2.418,2.418,0,0,1,2.414,2.414v2.414H4.147V10.562A2.418,2.418,0,0,1,6.562,8.147ZM52.919,43.881H6.562a2.418,2.418,0,0,1-2.414-2.414V15.874H55.334V41.467a2.418,2.418,0,0,1-2.414,2.414ZM17.465,29.159a5.09,5.09,0,1,0-5.09-5.09h0a5.094,5.094,0,0,0,5.09,5.09Zm0-7.282a2.192,2.192,0,1,1-2.192,2.192h0a2.194,2.194,0,0,1,2.192-2.192Zm0,9.567a8.782,8.782,0,0,0-8.518,6.8l-.012.06a1.4,1.4,0,0,0-.033.309,1.448,1.448,0,0,0,2.861.319l0-.01a5.838,5.838,0,0,1,11.392-.039l.008.039a1.449,1.449,0,0,0,2.863-.315,1.417,1.417,0,0,0-.035-.315l0,.01a8.8,8.8,0,0,0-8.526-6.859h0ZM49.056,20.7H33.6a1.449,1.449,0,1,0,0,2.9H49.056a1.449,1.449,0,0,0,0-2.9Zm0,7.726H33.6a1.449,1.449,0,1,0,0,2.9H49.056a1.449,1.449,0,0,0,0-2.9Zm0,7.726H33.6a1.449,1.449,0,0,0,0,2.9H49.056a1.449,1.449,0,0,0,0-2.9Z" transform="translate(-1.25 -5.25)" fill="#7b809a"/>
</svg>
