<svg xmlns="http://www.w3.org/2000/svg" width="56.183" height="48.217" viewBox="0 0 56.183 48.217">
  <path id="life-insurance-svgrepo-com" d="M39.727,74.223a8.613,8.613,0,0,1,0,12.314L30.2,95.909a3.072,3.072,0,0,1-4.3,0l-9.526-9.372a8.613,8.613,0,0,1,0-12.314,8.919,8.919,0,0,1,11.676-.689A8.919,8.919,0,0,1,39.727,74.223Zm-12.465,1.6a6.664,6.664,0,0,0-9.31,0,6.363,6.363,0,0,0,0,9.107L27.479,94.3a.822.822,0,0,0,1.144,0l9.526-9.372a6.363,6.363,0,0,0,0-9.107,6.664,6.664,0,0,0-9.31,0,1.125,1.125,0,0,1-1.578,0ZM21.811,99.821H11.685l-4.67-4.67a4.1,4.1,0,0,0-5.8,5.8l5.874,5.874a4.085,4.085,0,0,0,2.929,1.2l8.715,0v10.747a1.125,1.125,0,1,0,2.25,0V106.9a1.125,1.125,0,0,0-1.125-1.125H10.049a1.871,1.871,0,0,1-1.371-.54L2.8,99.363a1.853,1.853,0,0,1,2.62-2.621l5,5a1.125,1.125,0,0,0,.8.329H21.761c.016,0,1.079.005,1.079.005a1.857,1.857,0,0,1,1.857,1.857v14.841a1.125,1.125,0,1,0,2.25,0V103.932a4.107,4.107,0,0,0-4.107-4.106h-.919l-.111-.005Zm11.557.005a4.107,4.107,0,0,0-4.107,4.106v14.841a1.125,1.125,0,1,0,2.25,0V103.932a1.857,1.857,0,0,1,1.857-1.857h.981l.085-.005H44.989a1.125,1.125,0,0,0,.8-.329l5-5a1.853,1.853,0,0,1,2.62,2.621l-5.874,5.874a1.837,1.837,0,0,1-1.331.538,1.225,1.225,0,0,0-.249.024,1.1,1.1,0,0,1,.222-.022H36.352a1.125,1.125,0,0,0-1.125,1.125v11.872a1.125,1.125,0,1,0,2.25,0V108.026h8.694a4.1,4.1,0,0,0,2.949-1.2l5.874-5.874a4.1,4.1,0,0,0-5.8-5.8l-4.67,4.67H34.4l-.119.006h-.911Z" transform="translate(-0.013 -71.682)" fill="#7b809a"/>
</svg>
