<svg id="mortgage-svgrepo-com" xmlns="http://www.w3.org/2000/svg" width="44.097" height="44.097" viewBox="0 0 44.097 44.097">
  <g id="Group_10323" data-name="Group 10323">
    <g id="Group_10322" data-name="Group 10322">
      <path id="Path_7910" data-name="Path 7910" d="M44.1,20.626V18.84L22.99,3.556H21.107L16.359,6.994V4.267h1.422V0H3.556V4.267H4.979V15.235L0,18.84v1.786H3.556V44.1H40.541V41.252H44.1V22.76H40.541V20.626ZM4.979,1.422h11.38V2.845H4.979Zm9.957,2.845V8.024L6.4,14.2V4.267ZM39.118,42.675H4.979V20.626h34.14V22.76H8.535V41.252H39.118ZM18.492,32.006a7.824,7.824,0,1,1,7.824,7.824A7.833,7.833,0,0,1,18.492,32.006Zm2.919,7.824H9.957V24.182H21.411a9.22,9.22,0,0,0,0,15.647ZM42.675,24.182V39.83H31.221a9.22,9.22,0,0,0,0-15.647ZM39.83,19.2H1.924L21.568,4.979h.962L42.173,19.2Z" fill="#7b809a"/>
      <path id="Path_7911" data-name="Path 7911" d="M189.69,80a5.69,5.69,0,1,0,5.69,5.69A5.7,5.7,0,0,0,189.69,80Zm0,9.957a4.267,4.267,0,1,1,4.267-4.267A4.272,4.272,0,0,1,189.69,89.957Z" transform="translate(-167.641 -72.888)" fill="#7b809a"/>
      <path id="Path_7912" data-name="Path 7912" d="M260.267,300.8V299.38a2.845,2.845,0,0,0,0-5.69h-1.422a1.422,1.422,0,1,1,0-2.845h1.422a1.424,1.424,0,0,1,1.422,1.422v.711h1.422v-.711a2.848,2.848,0,0,0-2.845-2.845V288h-1.422v1.423a2.845,2.845,0,0,0,0,5.69h1.422a1.422,1.422,0,1,1,0,2.845h-1.422a1.424,1.424,0,0,1-1.422-1.422v-.711H256v.711a2.848,2.848,0,0,0,2.845,2.845V300.8Z" transform="translate(-233.24 -262.395)" fill="#7b809a"/>
      <rect id="Rectangle_4298" data-name="Rectangle 4298" width="1.452" height="1.452" transform="translate(37.034 31.268)" fill="#7b809a"/>
      <rect id="Rectangle_4299" data-name="Rectangle 4299" width="1.452" height="1.452" transform="translate(14.281 31.268)" fill="#7b809a"/>
    </g>
  </g>
</svg>
