<svg xmlns="http://www.w3.org/2000/svg" width="48.144" height="39.931" viewBox="0 0 48.144 39.931">
  <g id="piggy-bank-svgrepo-com" transform="translate(0 -41.513)">
    <g id="Group_10321" data-name="Group 10321" transform="translate(0 41.513)">
      <path id="Path_7897" data-name="Path 7897" d="M28.489,79.07H26.58V77.6a1.164,1.164,0,0,0-.406-.89,1.207,1.207,0,0,0-.94-.287,20.561,20.561,0,0,1-2.71.178c-.7,0-1.424-.04-2.127-.109a1.159,1.159,0,0,0-.92.3,1.2,1.2,0,0,0-.4.88V79.06H12.869v-1.5A7.582,7.582,0,0,0,10.3,72.264c-.01-.01-.02-.02-.03-.02l-.237-.208-.01-.01-.02-.02A14.648,14.648,0,0,1,5.648,65.36a1.19,1.19,0,0,0-1.138-.841H3.156a.773.773,0,0,1-.772-.772V58.92a.773.773,0,0,1,.772-.772H4.57a1.178,1.178,0,0,0,1.147-.821,14.94,14.94,0,0,1,4.906-6.934,1.237,1.237,0,0,0,.445-.89,6.909,6.909,0,0,0-.989-5.609A6.932,6.932,0,0,1,15.2,46.773a1.192,1.192,0,0,0,1.345.465,19.9,19.9,0,0,1,5.985-.91c7.577,0,14.254,4.194,16.609,10.436a11.966,11.966,0,0,1,.465,1.5c.079.326.148.653.208.969a1.184,1.184,0,1,0,2.334-.4c-.069-.386-.148-.772-.237-1.147a16.632,16.632,0,0,0-.554-1.771c-2.7-7.162-10.268-11.969-18.824-11.969a22.643,22.643,0,0,0-5.9.781,9.372,9.372,0,0,0-6.3-3.2,2.356,2.356,0,0,0-2.295,3.591,4.545,4.545,0,0,1,.742,3.7,17.491,17.491,0,0,0-5.035,6.944h-.6A3.154,3.154,0,0,0,0,58.91v4.827a3.154,3.154,0,0,0,3.146,3.146h.5a17.293,17.293,0,0,0,4.738,6.865.431.431,0,0,0,.069.059h0l.02.02c.079.069.158.138.247.208a5.2,5.2,0,0,1,1.781,3.571v1.583a2.25,2.25,0,0,0,2.245,2.245H19.22a2.25,2.25,0,0,0,2.245-2.245v-.247a23.165,23.165,0,0,0,2.75-.04v.277a2.25,2.25,0,0,0,2.245,2.245H28.5a1.177,1.177,0,1,0-.01-2.354Z" transform="translate(0 -41.513)" fill="#7b809a"/>
      <path id="Path_7898" data-name="Path 7898" d="M332.249,252.46h-1.464v-2.4a5.767,5.767,0,0,0-11.534,0v2.4h-1.464a1.191,1.191,0,0,0-1.187,1.187v9.328a1.191,1.191,0,0,0,1.187,1.187h14.452a1.19,1.19,0,0,0,1.187-1.187v-9.328A1.176,1.176,0,0,0,332.249,252.46Zm-10.624-2.4a3.393,3.393,0,0,1,6.786,0v2.4h-6.776v-2.4Zm9.437,11.732H318.974v-6.954h12.078v6.954Z" transform="translate(-285.282 -224.231)" fill="#7b809a"/>
    </g>
  </g>
</svg>
