<svg xmlns="http://www.w3.org/2000/svg" width="53.66" height="43.528" viewBox="0 0 53.66 43.528">
  <g id="wallet-2-svgrepo-com" transform="translate(-0.5 -2.5)">
    <path id="Path_630" data-name="Path 630" d="M7,24.2V9" transform="translate(7.665 7.665)" fill="none" stroke="#7b809a" stroke-linecap="round" stroke-linejoin="round" stroke-width="3"/>
    <path id="Path_631" data-name="Path 631" d="M29.776,9H23.184C18.664,9,15,12.4,15,16.6s3.664,7.6,8.184,7.6h6.592c.211,0,.317,0,.406-.005a2.637,2.637,0,0,0,2.544-2.362c.006-.083.006-.181.006-.377v-9.71c0-.2,0-.294-.006-.377a2.636,2.636,0,0,0-2.544-2.362C30.092,9,29.987,9,29.776,9Z" transform="translate(19.929 7.665)" fill="none" stroke="#7b809a" stroke-width="3"/>
    <path id="Path_632" data-name="Path 632" d="M50.038,16.665c-.2-4.743-.832-7.65-2.879-9.7C44.192,4,39.415,4,29.863,4h-7.6C12.711,4,7.935,4,4.968,6.968S2,14.711,2,24.264s0,14.329,2.968,17.3,7.744,2.968,17.3,2.968h7.6c9.552,0,14.329,0,17.3-2.968,2.047-2.047,2.682-4.955,2.879-9.7" fill="none" stroke="#7b809a" stroke-width="3"/>
    <path id="Path_633" data-name="Path 633" d="M17.991,12h.023" transform="translate(24.514 12.264)" fill="none" stroke="#7b809a" stroke-linecap="round" stroke-linejoin="round" stroke-width="3"/>
  </g>
</svg>
